<?xml version="1.0" standalone="no"?>
<!DOCTYPE svg PUBLIC "-//W3C//DTD SVG 20010904//EN"
 "http://www.w3.org/TR/2001/REC-SVG-20010904/DTD/svg10.dtd">
<svg version="1.0" xmlns="http://www.w3.org/2000/svg"
 width="1024.000000pt" height="1024.000000pt" viewBox="0 0 1024.000000 1024.000000"
 preserveAspectRatio="xMidYMid meet">

<defs>
<linearGradient id="oGradient" x1="100%" y1="100%" x2="0%" y2="0%">
<stop offset="0%" style="stop-color:#8B5CF6;stop-opacity:1" />
<stop offset="100%" style="stop-color:#EC4899;stop-opacity:1" />
</linearGradient>
</defs>

<g transform="translate(0.000000,1024.000000) scale(0.100000,-0.100000)"
fill="#000000" stroke="none">
<path d="M1380 5120 l0 -650 149 0 148 0 7 92 c3 50 6 117 6 150 l0 58 185 0
185 0 2 33 c1 17 2 86 2 152 l1 120 158 3 157 3 0 194 0 194 -157 3 -158 3 4
148 3 147 -346 0 -346 0 0 -650z m680 155 l0 -195 -185 0 -185 0 0 195 0 195
185 0 185 0 0 -195z"/>
<path d="M3870 5120 l0 -650 405 0 405 0 0 150 0 150 -255 2 -256 3 -2 495 -2
495 -147 3 -148 3 0 -651z"/>
<path d="M4480 5493 l0 -276 170 -164 170 -164 2 -207 3 -207 148 -3 147 -3 0
208 0 208 175 170 175 170 -2 270 -3 270 -147 3 -148 3 0 -210 0 -209 -97 -91
-97 -91 -35 32 c-20 18 -64 60 -98 93 l-63 59 0 208 0 208 -150 0 -150 0 0
-277z"/>
<path d="M5910 5620 l0 -150 -150 0 -150 0 0 -350 0 -350 150 0 150 0 0 -150
0 -150 365 0 365 0 0 400 0 400 -295 0 -295 0 0 -150 0 -149 148 -3 147 -3 0
-95 0 -95 -217 -3 -218 -2 0 350 0 350 367 2 366 3 1 145 1 145 -367 3 -368 2
0 -150z"/>
<path d="M6787 5763 c-4 -3 -7 -296 -7 -650 l0 -643 450 0 450 0 0 150 0 150
-300 0 -301 0 3 98 3 97 158 3 157 3 0 149 0 150 -160 0 -160 0 0 100 0 100
300 0 300 0 0 150 0 150 -443 0 c-244 0 -447 -3 -450 -7z"/>
<path d="M7810 5120 l0 -651 153 3 152 3 5 329 5 328 136 -198 c75 -110 177
-257 225 -329 l89 -130 143 -3 142 -3 0 651 0 650 -150 0 -150 0 0 -336 c0
-271 -2 -334 -13 -326 -7 6 -111 157 -232 336 l-219 326 -143 0 -143 0 0 -650z"/>
<path fill="url(#oGradient)" d="M2672 5607 l-152 -152 0 -341 0 -342 152 -146 152 -146 300 0 301 0
158 158 157 157 0 330 0 330 -157 152 -158 152 -300 1 -300 0 -153 -153z m748
-492 l0 -315 -292 2 -293 3 -3 313 -2 312 295 0 295 0 0 -315z"/>
</g>
</svg>
